<svg width="1081" height="1309" viewBox="0 0 1081 1309" fill="none" xmlns="http://www.w3.org/2000/svg">
<path d="M424.371 576.066L366.306 628.324L360.5 634.13L552.113 825.743L743.726 634.13L685.661 576.066L552.113 715.42L424.371 576.066Z" fill="#97DD47" stroke="#8CCD43"/>
<path d="M250.177 256.711L0.5 1.22699V831.55C0.500054 1104.45 250.177 1307.68 534.694 1307.68V1058C339.597 1076.58 250.177 918.646 250.177 831.55V256.711Z" fill="#09352C"/>
<path d="M1080.5 1.22699L830.823 250.904V819.937C830.823 898.904 772.758 961.227 743.726 982.517C780.5 1017.36 866.823 1100.97 917.919 1156.71C1034.05 1063.81 1080.5 924.453 1080.5 756.066V1.22699Z" fill="#09352C"/>
<path d="M250.177 256.711L0.5 1.22699V831.55C0.500054 1104.45 250.177 1307.68 534.694 1307.68V1058C339.597 1076.58 250.177 918.646 250.177 831.55V256.711Z" stroke="#06241E"/>
<path d="M1080.5 1.22699L830.823 250.904V819.937C830.823 898.904 772.758 961.227 743.726 982.517C780.5 1017.36 866.823 1100.97 917.919 1156.71C1034.05 1063.81 1080.5 924.453 1080.5 756.066V1.22699Z" stroke="#06241E"/>
</svg>
