<svg width="94" height="115" viewBox="0 0 94 115" fill="none" xmlns="http://www.w3.org/2000/svg">
<path d="M37 50.727L32 55.227L31.5 55.727L48 72.227L64.5 55.727L59.5 50.727L48 62.727L37 50.727Z" fill="#97DD47" stroke="#8CCD43"/>
<path d="M22 23.227L0.5 1.22699V72.727C0.500005 96.227 22 113.727 46.5 113.727V92.227C29.7 93.827 22 80.227 22 72.727V23.227Z" fill="#09352C"/>
<path d="M93.5 1.22699L72 22.727V71.727C72 78.527 67 83.8937 64.5 85.727C67.6667 88.727 75.1 95.927 79.5 100.727C89.5 92.727 93.5 80.727 93.5 66.227V1.22699Z" fill="#09352C"/>
<path d="M22 23.227L0.5 1.22699V72.727C0.500005 96.227 22 113.727 46.5 113.727V92.227C29.7 93.827 22 80.227 22 72.727V23.227Z" stroke="#06241E"/>
<path d="M93.5 1.22699L72 22.727V71.727C72 78.527 67 83.8937 64.5 85.727C67.6667 88.727 75.1 95.927 79.5 100.727C89.5 92.727 93.5 80.727 93.5 66.227V1.22699Z" stroke="#06241E"/>
</svg>
